<svg xmlns="http://www.w3.org/2000/svg" version="1.1" xmlns:xlink="http://www.w3.org/1999/xlink" xmlns:svgjs="http://svgjs.dev/svgjs" width="1440" height="560" preserveAspectRatio="none" viewBox="0 0 1440 560">
    <g mask="url(&quot;#SvgjsMask1009&quot;)" fill="none">
        <rect width="1440" height="560" x="0" y="0" fill="rgba(130, 49, 216, 1)"></rect>
        <path d="M0,429.622C76.931,409.194,110.937,319.606,180.252,280.477C256.15,237.632,373.981,265.703,420.707,192.131C466.348,120.268,420.479,24.334,394.401,-56.706C371.637,-127.449,329.434,-187.124,280.633,-243.17C231.939,-299.092,176.885,-345.402,111.911,-381.133C32.093,-425.027,-49.13,-487.7,-139.191,-474.043C-231.108,-460.104,-320.147,-394.982,-357.671,-309.923C-394,-227.573,-323.599,-137.014,-327.54,-47.093C-330.906,29.723,-391.354,97.144,-378.834,173.008C-364.693,258.695,-326.334,347.197,-254.431,395.902C-182.136,444.873,-84.395,452.032,0,429.622" fill="#6521ae"></path>
        <path d="M1440 883.825C1516.246 882.082 1593.844 939.168 1662.969 906.947 1732.761 874.415 1767.029 793.4590000000001 1790.912 720.256 1813.176 652.017 1803.713 580.219 1792.71 509.288 1781.82 439.086 1775.657 363.10400000000004 1727.4189999999999 310.95 1679.653 259.305 1603.114 254.05 1536.294 232.05200000000002 1466.966 209.228 1396.141 152.65300000000002 1328.289 179.548 1259.828 206.68400000000003 1260.789 307.33500000000004 1210.541 361.172 1157.2649999999999 418.253 1058.79 428.89 1028.429 500.825 996.995 575.304 1019.435 663.205 1051.8 737.285 1084.476 812.078 1134.021 888.47 1210.381 917.2950000000001 1284.242 945.1759999999999 1361.073 885.63 1440 883.825" fill="#a062e1"></path>
    </g>
    <defs>
        <mask id="SvgjsMask1009">
            <rect width="1440" height="560" fill="#ffffff"></rect>
        </mask>
    </defs>
</svg>